<svg xmlns="http://www.w3.org/2000/svg" xmlns:xlink="http://www.w3.org/1999/xlink" width="500" zoomAndPan="magnify" viewBox="0 0 375 374.999991" height="500" preserveAspectRatio="xMidYMid meet" version="1.0"><defs><g/><clipPath id="637a2ce878"><path d="M 110.84375 108.347656 L 263.84375 108.347656 L 263.84375 261.347656 L 110.84375 261.347656 Z M 110.84375 108.347656 " clip-rule="nonzero"/></clipPath><clipPath id="93a8846cb4"><path d="M 187.496094 108.347656 C 145.164062 108.347656 110.84375 142.664062 110.84375 185 C 110.84375 227.332031 145.164062 261.652344 187.496094 261.652344 C 229.832031 261.652344 264.148438 227.332031 264.148438 185 C 264.148438 142.664062 229.832031 108.347656 187.496094 108.347656 Z M 187.496094 108.347656 " clip-rule="nonzero"/></clipPath><clipPath id="c714f34f71"><path d="M 72.292969 211.644531 L 85.472656 211.644531 L 85.472656 224.824219 L 72.292969 224.824219 Z M 72.292969 211.644531 " clip-rule="nonzero"/></clipPath><clipPath id="edb5cb0d28"><path d="M 78.882812 211.644531 C 75.242188 211.644531 72.292969 214.59375 72.292969 218.234375 C 72.292969 221.871094 75.242188 224.824219 78.882812 224.824219 C 82.523438 224.824219 85.472656 221.871094 85.472656 218.234375 C 85.472656 214.59375 82.523438 211.644531 78.882812 211.644531 Z M 78.882812 211.644531 " clip-rule="nonzero"/></clipPath><clipPath id="652d98e11b"><path d="M 289.527344 211.644531 L 302.707031 211.644531 L 302.707031 224.824219 L 289.527344 224.824219 Z M 289.527344 211.644531 " clip-rule="nonzero"/></clipPath><clipPath id="b767811190"><path d="M 296.117188 211.644531 C 292.476562 211.644531 289.527344 214.59375 289.527344 218.234375 C 289.527344 221.871094 292.476562 224.824219 296.117188 224.824219 C 299.757812 224.824219 302.707031 221.871094 302.707031 218.234375 C 302.707031 214.59375 299.757812 211.644531 296.117188 211.644531 Z M 296.117188 211.644531 " clip-rule="nonzero"/></clipPath></defs><rect x="-37.5" width="450" fill="#ffffff" y="-37.499999" height="449.999989" fill-opacity="1"/><rect x="-37.5" width="450" fill="#ffffff" y="-37.499999" height="449.999989" fill-opacity="1"/><g clip-path="url(#637a2ce878)"><g clip-path="url(#93a8846cb4)"><path stroke-linecap="butt" transform="matrix(0.75, 0, 0, 0.75, 110.844254, 108.34661)" fill="none" stroke-linejoin="miter" d="M 102.20246 0.00139435 C 45.759748 0.00139435 -0.000672028 45.756606 -0.000672028 102.204526 C -0.000672028 158.647238 45.759748 204.407658 102.20246 204.407658 C 158.65038 204.407658 204.405591 158.647238 204.405591 102.204526 C 204.405591 45.756606 158.65038 0.00139435 102.20246 0.00139435 Z M 102.20246 0.00139435 " stroke="#ffffff" stroke-width="8" stroke-opacity="1" stroke-miterlimit="4"/></g></g><path stroke-linecap="butt" transform="matrix(0.75, 0, 0, 0.75, 153.795755, 146.563951)" fill="none" stroke-linejoin="miter" d="M 147.407753 138.070991 C 146.340044 138.961616 144.855669 139.961616 142.944211 141.070991 C 141.032752 142.180366 138.803586 143.222033 136.246294 144.2012 C 133.69421 145.180366 130.886918 145.998075 127.81921 146.664741 C 124.75671 147.331408 121.558793 147.664741 118.225459 147.664741 C 118.803584 146.597033 119.282751 145.633491 119.657751 144.768908 C 120.037959 143.899116 120.345251 143.044949 120.590043 142.201199 C 120.834834 141.357449 121.001501 140.513699 121.090043 139.669949 C 121.178584 138.826199 121.225459 137.893907 121.225459 136.873074 C 121.225459 135.716824 121.157751 133.706407 121.022334 130.841824 C 120.892126 127.97724 120.735876 124.612657 120.558793 120.748073 C 120.381709 116.883489 120.178584 112.685572 119.959834 108.154322 C 119.735876 103.62828 119.527543 99.138697 119.324418 94.695988 C 119.126501 90.258488 118.949418 86.034529 118.793168 82.039737 C 118.636918 78.039737 118.537959 74.62307 118.491084 71.77932 C 116.136917 75.909528 113.819209 79.71682 111.53275 83.206404 C 109.241084 86.690779 107.0015 90.034529 104.803583 93.232446 C 102.600458 96.430363 100.47025 99.560572 98.402541 102.62828 C 96.340041 105.69078 94.340041 108.867864 92.407749 112.154322 C 90.475457 115.440781 88.642124 118.91474 86.912957 122.581406 C 85.178582 126.242865 83.55879 130.274115 82.048373 134.675157 L 70.454623 147.664741 C 70.543164 146.112658 70.256706 144.23245 69.590039 142.034533 C 68.923373 139.836616 68.147331 137.716824 67.256706 135.675157 C 66.235872 133.274116 65.079622 130.810574 63.793164 128.279324 C 62.282747 125.524115 60.261914 121.748073 57.730664 116.951198 C 55.506705 112.909531 52.600455 107.513697 49.001496 100.758488 C 45.402538 94.008488 40.918162 85.612654 35.543162 75.576195 C 35.230662 80.992862 34.933787 86.482446 34.64212 92.034529 C 34.355662 97.586613 33.965037 103.081405 33.475454 108.524114 C 32.991079 113.961614 32.313995 119.294948 31.444203 124.513698 C 30.57962 129.732449 29.433787 134.675157 28.01712 139.336616 C 28.772328 139.602241 29.616078 139.805366 30.54837 139.935574 C 31.480662 140.070991 32.412954 140.138699 33.345245 140.138699 C 34.324412 140.138699 35.256704 140.091824 36.14212 140.003283 C 37.032745 139.914741 37.829621 139.826199 38.543162 139.737658 C 39.340037 139.602241 40.116079 139.472033 40.871287 139.336616 C 39.006704 140.758491 37.287954 141.982449 35.709829 143.003283 C 34.131704 144.024116 32.511912 144.8887 30.845245 145.602241 C 29.178578 146.310575 27.350453 146.831408 25.350453 147.164741 C 23.350453 147.498075 20.975453 147.664741 18.220244 147.664741 C 19.465036 146.466825 20.543161 144.477241 21.454619 141.701199 C 22.36087 138.925158 23.14212 135.617866 23.782745 131.774115 C 24.428578 127.935574 24.970245 123.680365 25.418161 119.018906 C 25.86087 114.352239 26.251495 109.565781 26.584828 104.65953 C 26.912953 99.748072 27.183787 94.831405 27.381703 89.899113 C 27.57962 84.972029 27.793162 80.294945 28.01712 75.878278 C 28.23587 71.456403 28.459828 67.414736 28.678578 63.748069 C 28.902537 60.086611 29.194203 57.076194 29.54837 54.722027 L 39.209829 44.060568 C 38.850454 44.77411 38.673371 45.570985 38.673371 46.46161 C 38.673371 47.347027 38.761912 48.190777 38.938996 48.99286 C 39.121287 49.925152 39.386912 50.878277 39.741079 51.857444 C 39.965037 52.435569 40.563996 53.701194 41.537954 55.654319 C 42.517121 57.607444 43.735871 60.018902 45.204621 62.883486 C 46.668163 65.748069 48.345246 68.992861 50.235871 72.612653 C 52.121288 76.232445 54.090038 80.008487 56.131705 83.935571 C 58.173372 87.867863 60.24108 91.841821 62.329622 95.862655 C 64.412956 99.883488 66.412956 103.737655 68.324414 107.425155 C 70.235873 111.112656 71.985873 114.539739 73.584831 117.716823 C 75.18379 120.893906 76.517123 123.591823 77.584831 125.810573 C 81.360873 119.951198 85.188999 114.018906 89.079624 108.024114 C 92.965041 102.029322 96.694208 96.050155 100.272333 90.102238 C 103.84525 84.149112 107.178583 78.232445 110.261917 72.347028 C 113.350459 66.461611 116.006709 60.675152 118.225459 54.987652 L 132.152543 44.060568 C 131.886918 52.279319 131.81921 60.154319 131.949418 67.680361 C 132.084835 75.211612 132.293168 82.550154 132.584835 89.701196 C 132.871293 96.852238 133.152543 103.867864 133.418168 110.753281 C 133.683794 117.638698 133.81921 124.524115 133.81921 131.409532 C 133.81921 133.409532 133.69421 135.039741 133.449418 136.305366 C 133.204627 137.570991 132.772335 138.451199 132.152543 138.935574 C 134.19421 139.206408 136.282752 139.336616 138.41296 139.336616 C 140.189002 139.336616 141.866086 139.237658 143.444211 139.039741 C 145.022336 138.836616 146.340044 138.513699 147.407753 138.070991 Z M 147.407753 138.070991 " stroke="#ffffff" stroke-width="15.521188" stroke-opacity="1" stroke-miterlimit="4"/><g fill="#000000" fill-opacity="1"><g transform="translate(163.463723, 256.063944)"><g><path d="M 100.890625 -5.953125 C 100.085938 -5.285156 98.96875 -4.535156 97.53125 -3.703125 C 96.101562 -2.867188 94.429688 -2.082031 92.515625 -1.34375 C 90.609375 -0.613281 88.503906 0 86.203125 0.5 C 83.898438 1 81.5 1.25 79 1.25 C 79.4375 0.445312 79.796875 -0.273438 80.078125 -0.921875 C 80.359375 -1.578125 80.59375 -2.21875 80.78125 -2.84375 C 80.96875 -3.476562 81.09375 -4.113281 81.15625 -4.75 C 81.21875 -5.382812 81.25 -6.082031 81.25 -6.84375 C 81.25 -7.707031 81.195312 -9.210938 81.09375 -11.359375 C 81 -13.515625 80.882812 -16.039062 80.75 -18.9375 C 80.625 -21.832031 80.476562 -24.976562 80.3125 -28.375 C 80.144531 -31.78125 79.984375 -35.144531 79.828125 -38.46875 C 79.679688 -41.800781 79.546875 -44.96875 79.421875 -47.96875 C 79.304688 -50.96875 79.234375 -53.535156 79.203125 -55.671875 C 77.441406 -52.566406 75.703125 -49.707031 73.984375 -47.09375 C 72.265625 -44.476562 70.582031 -41.972656 68.9375 -39.578125 C 67.289062 -37.179688 65.691406 -34.832031 64.140625 -32.53125 C 62.585938 -30.226562 61.085938 -27.84375 59.640625 -25.375 C 58.191406 -22.914062 56.816406 -20.3125 55.515625 -17.5625 C 54.222656 -14.8125 53.007812 -11.789062 51.875 -8.5 L 43.171875 1.25 C 43.242188 0.0820312 43.03125 -1.320312 42.53125 -2.96875 C 42.03125 -4.625 41.445312 -6.21875 40.78125 -7.75 C 40.007812 -9.539062 39.140625 -11.390625 38.171875 -13.296875 C 37.046875 -15.359375 35.53125 -18.1875 33.625 -21.78125 C 31.96875 -24.8125 29.785156 -28.859375 27.078125 -33.921875 C 24.378906 -38.992188 21.015625 -45.296875 16.984375 -52.828125 C 16.753906 -48.753906 16.53125 -44.632812 16.3125 -40.46875 C 16.09375 -36.3125 15.800781 -32.191406 15.4375 -28.109375 C 15.070312 -24.023438 14.5625 -20.023438 13.90625 -16.109375 C 13.257812 -12.203125 12.40625 -8.5 11.34375 -5 C 11.90625 -4.800781 12.535156 -4.648438 13.234375 -4.546875 C 13.941406 -4.441406 14.644531 -4.390625 15.34375 -4.390625 C 16.070312 -4.390625 16.769531 -4.421875 17.4375 -4.484375 C 18.101562 -4.554688 18.703125 -4.628906 19.234375 -4.703125 C 19.835938 -4.796875 20.421875 -4.894531 20.984375 -5 C 19.585938 -3.925781 18.296875 -3.003906 17.109375 -2.234375 C 15.929688 -1.472656 14.71875 -0.828125 13.46875 -0.296875 C 12.21875 0.234375 10.84375 0.625 9.34375 0.875 C 7.84375 1.125 6.0625 1.25 4 1.25 C 4.925781 0.351562 5.734375 -1.132812 6.421875 -3.21875 C 7.109375 -5.300781 7.691406 -7.78125 8.171875 -10.65625 C 8.648438 -13.539062 9.054688 -16.734375 9.390625 -20.234375 C 9.722656 -23.734375 10.015625 -27.320312 10.265625 -31 C 10.515625 -34.6875 10.710938 -38.378906 10.859375 -42.078125 C 11.015625 -45.773438 11.175781 -49.28125 11.34375 -52.59375 C 11.507812 -55.90625 11.675781 -58.9375 11.84375 -61.6875 C 12.007812 -64.4375 12.226562 -66.695312 12.5 -68.46875 L 19.734375 -76.453125 C 19.472656 -75.921875 19.34375 -75.320312 19.34375 -74.65625 C 19.34375 -73.988281 19.410156 -73.359375 19.546875 -72.765625 C 19.671875 -72.054688 19.867188 -71.335938 20.140625 -70.609375 C 20.304688 -70.179688 20.753906 -69.234375 21.484375 -67.765625 C 22.222656 -66.296875 23.140625 -64.488281 24.234375 -62.34375 C 25.335938 -60.195312 26.597656 -57.765625 28.015625 -55.046875 C 29.429688 -52.328125 30.90625 -49.492188 32.4375 -46.546875 C 33.96875 -43.597656 35.515625 -40.613281 37.078125 -37.59375 C 38.640625 -34.582031 40.132812 -31.691406 41.5625 -28.921875 C 43 -26.160156 44.316406 -23.585938 45.515625 -21.203125 C 46.722656 -18.828125 47.722656 -16.804688 48.515625 -15.140625 C 51.347656 -19.535156 54.222656 -23.984375 57.140625 -28.484375 C 60.054688 -32.984375 62.851562 -37.460938 65.53125 -41.921875 C 68.21875 -46.390625 70.71875 -50.828125 73.03125 -55.234375 C 75.351562 -59.648438 77.34375 -63.992188 79 -68.265625 L 89.453125 -76.453125 C 89.253906 -70.296875 89.203125 -64.390625 89.296875 -58.734375 C 89.398438 -53.085938 89.554688 -47.582031 89.765625 -42.21875 C 89.984375 -36.863281 90.191406 -31.601562 90.390625 -26.4375 C 90.597656 -21.269531 90.703125 -16.101562 90.703125 -10.9375 C 90.703125 -9.4375 90.609375 -8.210938 90.421875 -7.265625 C 90.242188 -6.316406 89.921875 -5.660156 89.453125 -5.296875 C 90.984375 -5.097656 92.546875 -5 94.140625 -5 C 95.472656 -5 96.726562 -5.070312 97.90625 -5.21875 C 99.09375 -5.375 100.085938 -5.617188 100.890625 -5.953125 Z M 100.890625 -5.953125 "/></g></g></g><g fill="#000000" fill-opacity="1"><g transform="translate(140.513507, 220.516992)"><g><path d="M 28.890625 -74.40625 C 27.316406 -73.375 25.90625 -72.515625 24.65625 -71.828125 C 23.40625 -71.148438 22.21875 -70.578125 21.09375 -70.109375 C 21.019531 -67.242188 20.945312 -64.585938 20.875 -62.140625 C 20.8125 -59.691406 20.753906 -57.382812 20.703125 -55.21875 C 20.660156 -53.050781 20.617188 -51 20.578125 -49.0625 C 20.546875 -47.132812 20.515625 -45.269531 20.484375 -43.46875 C 22.253906 -43.84375 24.085938 -44.03125 25.984375 -44.03125 C 27.816406 -44.03125 29.941406 -44.003906 32.359375 -43.953125 C 34.773438 -43.898438 37.28125 -43.832031 39.875 -43.75 C 42.476562 -43.664062 45.09375 -43.597656 47.71875 -43.546875 C 50.351562 -43.492188 52.800781 -43.46875 55.0625 -43.46875 L 57.421875 -43.46875 L 57.421875 -68.359375 C 56.390625 -68.265625 55.128906 -68.140625 53.640625 -67.984375 C 52.160156 -67.835938 50.488281 -67.628906 48.625 -67.359375 C 50.425781 -68.828125 52.039062 -69.9375 53.46875 -70.6875 C 54.90625 -71.4375 56.140625 -71.992188 57.171875 -72.359375 C 58.367188 -72.753906 59.429688 -72.988281 60.359375 -73.0625 C 61.566406 -73.0625 62.867188 -73.09375 64.265625 -73.15625 C 65.660156 -73.226562 67.023438 -73.320312 68.359375 -73.4375 C 69.691406 -73.550781 70.898438 -73.691406 71.984375 -73.859375 C 73.066406 -74.023438 73.875 -74.207031 74.40625 -74.40625 C 72.84375 -73.375 71.4375 -72.515625 70.1875 -71.828125 C 68.9375 -71.148438 67.742188 -70.578125 66.609375 -70.109375 C 66.441406 -64.046875 66.304688 -58.628906 66.203125 -53.859375 C 66.109375 -49.097656 66.019531 -44.878906 65.9375 -41.203125 C 65.851562 -37.523438 65.785156 -34.332031 65.734375 -31.625 C 65.679688 -28.925781 65.640625 -26.628906 65.609375 -24.734375 C 65.515625 -20.273438 65.484375 -17.242188 65.515625 -15.640625 C 65.484375 -14.410156 65.316406 -13.195312 65.015625 -12 C 64.742188 -10.957031 64.34375 -9.84375 63.8125 -8.65625 C 63.28125 -7.476562 62.515625 -6.410156 61.515625 -5.453125 C 62.117188 -5.378906 62.703125 -5.332031 63.265625 -5.3125 C 63.828125 -5.300781 64.394531 -5.296875 64.96875 -5.296875 C 66.53125 -5.296875 67.9375 -5.367188 69.1875 -5.515625 C 70.4375 -5.671875 71.519531 -5.832031 72.4375 -6 C 73.351562 -6.164062 74.078125 -6.332031 74.609375 -6.5 C 75.140625 -6.664062 75.472656 -6.78125 75.609375 -6.84375 C 73.835938 -5.644531 72.367188 -4.613281 71.203125 -3.75 C 70.046875 -2.882812 69 -2.175781 68.0625 -1.625 C 67.125 -1.070312 66.210938 -0.660156 65.328125 -0.390625 C 64.453125 -0.128906 63.414062 0 62.21875 0 C 60.613281 0 59.253906 -0.0664062 58.140625 -0.203125 C 57.023438 -0.335938 55.898438 -0.40625 54.765625 -0.40625 C 54.203125 -0.40625 53.628906 -0.378906 53.046875 -0.328125 C 52.460938 -0.273438 51.804688 -0.164062 51.078125 0 C 52.140625 -0.5 53.066406 -1.023438 53.859375 -1.578125 C 54.660156 -2.128906 55.320312 -2.894531 55.84375 -3.875 C 56.363281 -4.851562 56.753906 -6.148438 57.015625 -7.765625 C 57.285156 -9.378906 57.421875 -11.535156 57.421875 -14.234375 L 57.421875 -40.234375 C 56.453125 -40.023438 55.367188 -39.851562 54.171875 -39.71875 C 52.972656 -39.59375 51.585938 -39.53125 50.015625 -39.53125 C 47.859375 -39.53125 45.328125 -39.59375 42.421875 -39.71875 C 39.523438 -39.851562 36.363281 -39.921875 32.9375 -39.921875 C 30.90625 -39.921875 28.847656 -39.867188 26.765625 -39.765625 C 24.679688 -39.671875 22.554688 -39.507812 20.390625 -39.28125 C 20.253906 -34.382812 20.160156 -30.398438 20.109375 -27.328125 C 20.054688 -24.265625 20.015625 -21.867188 19.984375 -20.140625 C 19.953125 -18.109375 19.9375 -16.609375 19.9375 -15.640625 C 19.90625 -14.410156 19.738281 -13.195312 19.4375 -12 C 19.175781 -10.957031 18.773438 -9.84375 18.234375 -8.65625 C 17.703125 -7.476562 16.9375 -6.410156 15.9375 -5.453125 C 16.570312 -5.378906 17.171875 -5.332031 17.734375 -5.3125 C 18.304688 -5.300781 18.875 -5.296875 19.4375 -5.296875 C 21 -5.296875 22.40625 -5.367188 23.65625 -5.515625 C 24.90625 -5.671875 25.988281 -5.832031 26.90625 -6 C 27.820312 -6.164062 28.546875 -6.332031 29.078125 -6.5 C 29.617188 -6.664062 29.953125 -6.78125 30.078125 -6.84375 C 28.316406 -5.644531 26.851562 -4.613281 25.6875 -3.75 C 24.519531 -2.882812 23.46875 -2.175781 22.53125 -1.625 C 21.601562 -1.070312 20.695312 -0.660156 19.8125 -0.390625 C 18.925781 -0.128906 17.882812 0 16.6875 0 C 15.09375 0 13.726562 -0.0664062 12.59375 -0.203125 C 11.457031 -0.335938 10.320312 -0.40625 9.1875 -0.40625 C 8.625 -0.40625 8.050781 -0.378906 7.46875 -0.328125 C 6.882812 -0.273438 6.242188 -0.164062 5.546875 0 C 6.484375 -0.800781 7.332031 -1.675781 8.09375 -2.625 C 8.863281 -3.570312 9.519531 -4.726562 10.0625 -6.09375 C 10.613281 -7.457031 11.039062 -9.085938 11.34375 -10.984375 C 11.644531 -12.890625 11.796875 -15.191406 11.796875 -17.890625 L 11.796875 -37.78125 C 11.023438 -37.613281 10.273438 -37.429688 9.546875 -37.234375 C 8.816406 -37.035156 8.082031 -36.800781 7.34375 -36.53125 C 8.082031 -37.195312 8.816406 -37.8125 9.546875 -38.375 C 10.273438 -38.945312 11.023438 -39.5 11.796875 -40.03125 L 11.796875 -68.359375 C 10.765625 -68.265625 9.515625 -68.140625 8.046875 -67.984375 C 6.578125 -67.835938 4.910156 -67.628906 3.046875 -67.359375 C 4.847656 -68.828125 6.472656 -69.9375 7.921875 -70.6875 C 9.367188 -71.4375 10.609375 -71.992188 11.640625 -72.359375 C 12.835938 -72.753906 13.90625 -72.988281 14.84375 -73.0625 C 16.007812 -73.0625 17.300781 -73.09375 18.71875 -73.15625 C 20.132812 -73.226562 21.5 -73.320312 22.8125 -73.4375 C 24.125 -73.550781 25.328125 -73.691406 26.421875 -73.859375 C 27.523438 -74.023438 28.347656 -74.207031 28.890625 -74.40625 Z M 30.078125 -6.84375 L 30.078125 -6.890625 C 30.117188 -6.929688 30.15625 -6.953125 30.1875 -6.953125 Z M 75.609375 -6.84375 L 75.609375 -6.890625 L 75.65625 -6.890625 C 75.6875 -6.929688 75.722656 -6.953125 75.765625 -6.953125 Z M 75.609375 -6.84375 "/></g></g></g><g clip-path="url(#c714f34f71)"><g clip-path="url(#edb5cb0d28)"><path fill="#000000" d="M 72.292969 211.644531 L 85.472656 211.644531 L 85.472656 224.824219 L 72.292969 224.824219 Z M 72.292969 211.644531 " fill-opacity="1" fill-rule="nonzero"/></g></g><g clip-path="url(#652d98e11b)"><g clip-path="url(#b767811190)"><path fill="#000000" d="M 289.527344 211.644531 L 302.707031 211.644531 L 302.707031 224.824219 L 289.527344 224.824219 Z M 289.527344 211.644531 " fill-opacity="1" fill-rule="nonzero"/></g></g></svg>