<svg xmlns="http://www.w3.org/2000/svg" xmlns:xlink="http://www.w3.org/1999/xlink" width="500" zoomAndPan="magnify" viewBox="0 0 375 374.999991" height="500" preserveAspectRatio="xMidYMid meet" version="1.0"><defs><g/><clipPath id="3acdbd529d"><path d="M 110.84375 108.347656 L 263.84375 108.347656 L 263.84375 261.347656 L 110.84375 261.347656 Z M 110.84375 108.347656 " clip-rule="nonzero"/></clipPath><clipPath id="e858ec9b63"><path d="M 187.496094 108.347656 C 145.164062 108.347656 110.84375 142.664062 110.84375 185 C 110.84375 227.332031 145.164062 261.652344 187.496094 261.652344 C 229.832031 261.652344 264.148438 227.332031 264.148438 185 C 264.148438 142.664062 229.832031 108.347656 187.496094 108.347656 Z M 187.496094 108.347656 " clip-rule="nonzero"/></clipPath><clipPath id="081f2c5926"><path d="M 72.292969 211.644531 L 85.472656 211.644531 L 85.472656 224.824219 L 72.292969 224.824219 Z M 72.292969 211.644531 " clip-rule="nonzero"/></clipPath><clipPath id="9f71f15c3f"><path d="M 78.882812 211.644531 C 75.242188 211.644531 72.292969 214.59375 72.292969 218.234375 C 72.292969 221.871094 75.242188 224.824219 78.882812 224.824219 C 82.523438 224.824219 85.472656 221.871094 85.472656 218.234375 C 85.472656 214.59375 82.523438 211.644531 78.882812 211.644531 Z M 78.882812 211.644531 " clip-rule="nonzero"/></clipPath><clipPath id="354fcac56a"><path d="M 289.527344 211.644531 L 302.707031 211.644531 L 302.707031 224.824219 L 289.527344 224.824219 Z M 289.527344 211.644531 " clip-rule="nonzero"/></clipPath><clipPath id="e9fc2defff"><path d="M 296.117188 211.644531 C 292.476562 211.644531 289.527344 214.59375 289.527344 218.234375 C 289.527344 221.871094 292.476562 224.824219 296.117188 224.824219 C 299.757812 224.824219 302.707031 221.871094 302.707031 218.234375 C 302.707031 214.59375 299.757812 211.644531 296.117188 211.644531 Z M 296.117188 211.644531 " clip-rule="nonzero"/></clipPath></defs><rect x="-37.5" width="450" fill="#ffffff" y="-37.499999" height="449.999989" fill-opacity="1"/><rect x="-37.5" width="450" fill="#ffffff" y="-37.499999" height="449.999989" fill-opacity="1"/><g fill="#000000" fill-opacity="1"><g transform="translate(132.044069, 115.115326)"><g><path d="M -10.71875 -18.984375 C -10.769531 -18.484375 -10.832031 -18.039062 -10.90625 -17.65625 C -10.976562 -17.269531 -11.0625 -16.914062 -11.15625 -16.59375 C -10.550781 -16.082031 -10 -15.609375 -9.5 -15.171875 C -9 -14.734375 -8.519531 -14.320312 -8.0625 -13.9375 C -7.613281 -13.550781 -7.1875 -13.1875 -6.78125 -12.84375 C -6.382812 -12.507812 -6.003906 -12.179688 -5.640625 -11.859375 C -5.410156 -12.285156 -5.128906 -12.703125 -4.796875 -13.109375 C -4.484375 -13.492188 -4.109375 -13.9375 -3.671875 -14.4375 C -3.242188 -14.9375 -2.796875 -15.453125 -2.328125 -15.984375 C -1.867188 -16.523438 -1.40625 -17.066406 -0.9375 -17.609375 C -0.46875 -18.160156 -0.0351562 -18.679688 0.359375 -19.171875 L 0.765625 -19.65625 L -4.484375 -23.96875 C -4.640625 -23.726562 -4.832031 -23.4375 -5.0625 -23.09375 C -5.289062 -22.757812 -5.539062 -22.375 -5.8125 -21.9375 C -5.800781 -22.570312 -5.75 -23.101562 -5.65625 -23.53125 C -5.570312 -23.96875 -5.476562 -24.320312 -5.375 -24.59375 C -5.25 -24.925781 -5.113281 -25.195312 -4.96875 -25.40625 C -4.757812 -25.65625 -4.539062 -25.929688 -4.3125 -26.234375 C -4.082031 -26.546875 -3.863281 -26.851562 -3.65625 -27.15625 C -3.457031 -27.457031 -3.28125 -27.734375 -3.125 -27.984375 C -2.96875 -28.242188 -2.867188 -28.453125 -2.828125 -28.609375 C -2.878906 -28.097656 -2.941406 -27.648438 -3.015625 -27.265625 C -3.085938 -26.878906 -3.175781 -26.523438 -3.28125 -26.203125 C -2.019531 -25.128906 -0.898438 -24.164062 0.078125 -23.3125 C 1.066406 -22.46875 1.941406 -21.71875 2.703125 -21.0625 C 3.472656 -20.40625 4.140625 -19.835938 4.703125 -19.359375 C 5.265625 -18.890625 5.742188 -18.484375 6.140625 -18.140625 C 7.054688 -17.347656 7.691406 -16.8125 8.046875 -16.53125 C 8.296875 -16.320312 8.519531 -16.078125 8.71875 -15.796875 C 8.894531 -15.566406 9.0625 -15.296875 9.21875 -14.984375 C 9.375 -14.671875 9.472656 -14.316406 9.515625 -13.921875 C 9.628906 -14.046875 9.734375 -14.164062 9.828125 -14.28125 C 9.929688 -14.40625 10.03125 -14.523438 10.125 -14.640625 C 10.394531 -14.972656 10.625 -15.28125 10.8125 -15.5625 C 11.007812 -15.84375 11.164062 -16.09375 11.28125 -16.3125 C 11.40625 -16.539062 11.492188 -16.726562 11.546875 -16.875 C 11.609375 -17.019531 11.640625 -17.113281 11.640625 -17.15625 C 11.597656 -16.570312 11.566406 -16.082031 11.546875 -15.6875 C 11.523438 -15.289062 11.488281 -14.945312 11.4375 -14.65625 C 11.394531 -14.363281 11.328125 -14.097656 11.234375 -13.859375 C 11.140625 -13.628906 10.988281 -13.390625 10.78125 -13.140625 C 10.5 -12.804688 10.25 -12.53125 10.03125 -12.3125 C 9.8125 -12.09375 9.601562 -11.863281 9.40625 -11.625 C 9.3125 -11.507812 9.21875 -11.382812 9.125 -11.25 C 9.03125 -11.125 8.9375 -10.96875 8.84375 -10.78125 C 8.925781 -11.09375 8.976562 -11.382812 9 -11.65625 C 9.03125 -11.925781 8.984375 -12.195312 8.859375 -12.46875 C 8.742188 -12.738281 8.535156 -13.039062 8.234375 -13.375 C 7.941406 -13.71875 7.507812 -14.125 6.9375 -14.59375 L 1.453125 -19.09375 C 1.316406 -18.851562 1.160156 -18.59375 0.984375 -18.3125 C 0.804688 -18.03125 0.582031 -17.726562 0.3125 -17.40625 C -0.0507812 -16.945312 -0.5 -16.425781 -1.03125 -15.84375 C -1.570312 -15.257812 -2.140625 -14.601562 -2.734375 -13.875 C -3.085938 -13.445312 -3.429688 -13 -3.765625 -12.53125 C -4.109375 -12.070312 -4.441406 -11.597656 -4.765625 -11.109375 C -3.742188 -10.234375 -2.914062 -9.523438 -2.28125 -8.984375 C -1.644531 -8.441406 -1.148438 -8.015625 -0.796875 -7.703125 C -0.367188 -7.359375 -0.0507812 -7.097656 0.15625 -6.921875 C 0.414062 -6.703125 0.644531 -6.457031 0.84375 -6.1875 C 1.007812 -5.945312 1.164062 -5.671875 1.3125 -5.359375 C 1.46875 -5.046875 1.570312 -4.695312 1.625 -4.3125 C 1.738281 -4.425781 1.84375 -4.539062 1.9375 -4.65625 C 2.039062 -4.78125 2.144531 -4.90625 2.25 -5.03125 C 2.519531 -5.363281 2.75 -5.671875 2.9375 -5.953125 C 3.125 -6.234375 3.273438 -6.484375 3.390625 -6.703125 C 3.515625 -6.929688 3.601562 -7.117188 3.65625 -7.265625 C 3.71875 -7.410156 3.753906 -7.503906 3.765625 -7.546875 C 3.710938 -6.960938 3.675781 -6.46875 3.65625 -6.0625 C 3.632812 -5.664062 3.601562 -5.320312 3.5625 -5.03125 C 3.519531 -4.75 3.445312 -4.488281 3.34375 -4.25 C 3.25 -4.019531 3.097656 -3.78125 2.890625 -3.53125 C 2.617188 -3.1875 2.367188 -2.90625 2.140625 -2.6875 C 1.910156 -2.46875 1.703125 -2.238281 1.515625 -2 C 1.421875 -1.882812 1.328125 -1.757812 1.234375 -1.625 C 1.140625 -1.5 1.050781 -1.347656 0.96875 -1.171875 C 0.957031 -1.503906 0.914062 -1.832031 0.84375 -2.15625 C 0.78125 -2.488281 0.648438 -2.828125 0.453125 -3.171875 C 0.253906 -3.523438 -0.015625 -3.894531 -0.359375 -4.28125 C -0.703125 -4.675781 -1.160156 -5.109375 -1.734375 -5.578125 L -5.921875 -9.03125 C -6.023438 -8.84375 -6.117188 -8.65625 -6.203125 -8.46875 C -6.285156 -8.28125 -6.367188 -8.082031 -6.453125 -7.875 C -6.453125 -8.144531 -6.445312 -8.40625 -6.4375 -8.65625 C -6.4375 -8.914062 -6.425781 -9.171875 -6.40625 -9.421875 L -12.390625 -14.328125 C -12.546875 -14.085938 -12.734375 -13.800781 -12.953125 -13.46875 C -13.179688 -13.132812 -13.429688 -12.75 -13.703125 -12.3125 C -13.703125 -12.9375 -13.648438 -13.46875 -13.546875 -13.90625 C -13.453125 -14.34375 -13.359375 -14.707031 -13.265625 -15 C -13.140625 -15.320312 -13.003906 -15.582031 -12.859375 -15.78125 C -12.648438 -16.03125 -12.429688 -16.304688 -12.203125 -16.609375 C -11.972656 -16.921875 -11.753906 -17.226562 -11.546875 -17.53125 C -11.347656 -17.832031 -11.171875 -18.113281 -11.015625 -18.375 C -10.859375 -18.632812 -10.757812 -18.835938 -10.71875 -18.984375 Z M 3.765625 -7.546875 L 3.75 -7.5625 C 3.75 -7.5625 3.753906 -7.566406 3.765625 -7.578125 Z M 11.640625 -17.15625 L 11.625 -17.171875 L 11.640625 -17.1875 C 11.640625 -17.1875 11.644531 -17.191406 11.65625 -17.203125 Z M 11.640625 -17.15625 "/></g></g></g><g fill="#000000" fill-opacity="1"><g transform="translate(144.959045, 99.437238)"><g><path d="M 4.09375 -20.234375 C 4.40625 -19.640625 4.578125 -19.046875 4.609375 -18.453125 C 4.648438 -17.859375 4.609375 -17.285156 4.484375 -16.734375 C 4.367188 -16.191406 4.1875 -15.675781 3.9375 -15.1875 C 3.695312 -14.695312 3.453125 -14.257812 3.203125 -13.875 C 4.347656 -13.59375 5.375 -13.347656 6.28125 -13.140625 C 7.1875 -12.929688 7.992188 -12.75 8.703125 -12.59375 C 9.410156 -12.4375 10.019531 -12.300781 10.53125 -12.1875 C 11.039062 -12.082031 11.476562 -11.992188 11.84375 -11.921875 C 12.6875 -11.753906 13.269531 -11.660156 13.59375 -11.640625 C 13.914062 -11.597656 14.222656 -11.625 14.515625 -11.71875 C 14.816406 -11.820312 15.082031 -11.953125 15.3125 -12.109375 C 15.5 -12.234375 15.671875 -12.375 15.828125 -12.53125 C 15.992188 -12.695312 16.113281 -12.835938 16.1875 -12.953125 C 15.988281 -12.472656 15.816406 -12.039062 15.671875 -11.65625 C 15.523438 -11.28125 15.378906 -10.945312 15.234375 -10.65625 C 15.097656 -10.363281 14.953125 -10.109375 14.796875 -9.890625 C 14.640625 -9.671875 14.445312 -9.488281 14.21875 -9.34375 C 14.070312 -9.238281 13.90625 -9.164062 13.71875 -9.125 C 13.539062 -9.082031 13.335938 -9.050781 13.109375 -9.03125 C 12.890625 -9.019531 12.632812 -9.023438 12.34375 -9.046875 C 12.0625 -9.078125 11.738281 -9.128906 11.375 -9.203125 C 11.132812 -9.242188 10.765625 -9.332031 10.265625 -9.46875 C 9.765625 -9.613281 9.203125 -9.765625 8.578125 -9.921875 C 7.960938 -10.078125 7.316406 -10.242188 6.640625 -10.421875 C 5.972656 -10.597656 5.34375 -10.757812 4.75 -10.90625 C 4.164062 -11.050781 3.65625 -11.171875 3.21875 -11.265625 C 2.78125 -11.359375 2.492188 -11.40625 2.359375 -11.40625 C 2.203125 -11.40625 2.039062 -11.382812 1.875 -11.34375 C 1.726562 -11.3125 1.570312 -11.269531 1.40625 -11.21875 C 1.25 -11.164062 1.113281 -11.082031 1 -10.96875 L 1.890625 -13.203125 C 2.273438 -13.460938 2.582031 -13.789062 2.8125 -14.1875 C 3.039062 -14.59375 3.171875 -15.046875 3.203125 -15.546875 C 3.242188 -16.054688 3.175781 -16.597656 3 -17.171875 C 2.820312 -17.753906 2.507812 -18.347656 2.0625 -18.953125 C 1.8125 -19.304688 1.515625 -19.582031 1.171875 -19.78125 C 0.828125 -19.976562 0.457031 -20.117188 0.0625 -20.203125 C -0.320312 -20.285156 -0.71875 -20.316406 -1.125 -20.296875 C -1.539062 -20.273438 -1.941406 -20.21875 -2.328125 -20.125 C -2.722656 -20.03125 -3.09375 -19.914062 -3.4375 -19.78125 C -3.78125 -19.644531 -4.082031 -19.488281 -4.34375 -19.3125 C -4.519531 -19.195312 -4.707031 -19.066406 -4.90625 -18.921875 C -5.101562 -18.773438 -5.304688 -18.632812 -5.515625 -18.5 C -4.585938 -17.0625 -3.769531 -15.773438 -3.0625 -14.640625 C -2.363281 -13.515625 -1.738281 -12.507812 -1.1875 -11.625 C -0.632812 -10.738281 -0.160156 -9.976562 0.234375 -9.34375 C 0.628906 -8.707031 0.957031 -8.164062 1.21875 -7.71875 C 1.851562 -6.65625 2.273438 -5.929688 2.484375 -5.546875 C 2.554688 -5.367188 2.617188 -5.1875 2.671875 -5 C 2.722656 -4.820312 2.757812 -4.625 2.78125 -4.40625 C 2.800781 -4.195312 2.804688 -3.976562 2.796875 -3.75 C 3.140625 -3.9375 3.441406 -4.113281 3.703125 -4.28125 C 3.972656 -4.445312 4.21875 -4.601562 4.4375 -4.75 C 4.96875 -5.09375 5.347656 -5.363281 5.578125 -5.5625 C 5.804688 -5.757812 5.929688 -5.875 5.953125 -5.90625 C 5.679688 -5.4375 5.425781 -5.003906 5.1875 -4.609375 C 4.945312 -4.222656 4.710938 -3.859375 4.484375 -3.515625 C 4.253906 -3.179688 4.015625 -2.878906 3.765625 -2.609375 C 3.515625 -2.335938 3.25 -2.109375 2.96875 -1.921875 L 1 -0.609375 L 1.546875 -1.96875 C 1.472656 -2.195312 1.367188 -2.460938 1.234375 -2.765625 C 1.109375 -3.066406 0.957031 -3.390625 0.78125 -3.734375 C 0.613281 -4.078125 0.429688 -4.425781 0.234375 -4.78125 C 0.0351562 -5.132812 -0.15625 -5.484375 -0.34375 -5.828125 C -0.800781 -6.609375 -1.289062 -7.425781 -1.8125 -8.28125 C -2.570312 -9.457031 -3.300781 -10.585938 -4 -11.671875 C -4.300781 -12.160156 -4.609375 -12.648438 -4.921875 -13.140625 C -5.234375 -13.628906 -5.539062 -14.109375 -5.84375 -14.578125 C -6.144531 -15.046875 -6.429688 -15.492188 -6.703125 -15.921875 C -6.984375 -16.347656 -7.226562 -16.722656 -7.4375 -17.046875 L -9.390625 -15.53125 L -8.046875 -18.34375 C -7.910156 -18.394531 -7.757812 -18.472656 -7.59375 -18.578125 C -7.4375 -18.679688 -7.269531 -18.789062 -7.09375 -18.90625 C -6.78125 -19.113281 -6.472656 -19.335938 -6.171875 -19.578125 C -5.867188 -19.816406 -5.570312 -20.054688 -5.28125 -20.296875 C -4.988281 -20.535156 -4.695312 -20.769531 -4.40625 -21 C -4.125 -21.226562 -3.828125 -21.445312 -3.515625 -21.65625 C -2.910156 -22.0625 -2.242188 -22.351562 -1.515625 -22.53125 C -0.796875 -22.707031 -0.0859375 -22.75 0.609375 -22.65625 C 1.304688 -22.5625 1.960938 -22.320312 2.578125 -21.9375 C 3.203125 -21.550781 3.707031 -20.984375 4.09375 -20.234375 Z M 16.203125 -13 C 16.203125 -12.988281 16.203125 -12.984375 16.203125 -12.984375 L 16.1875 -12.96875 L 16.1875 -12.953125 L 16.1875 -12.96875 L 16.203125 -12.984375 C 16.191406 -12.992188 16.191406 -13 16.203125 -13 Z M 16.203125 -13 "/></g></g></g><g fill="#000000" fill-opacity="1"><g transform="translate(161.003587, 89.57169)"><g/></g></g><g fill="#000000" fill-opacity="1"><g transform="translate(166.647274, 85.792425)"><g><path d="M 27.1875 -4.78125 C 26.988281 -4.570312 26.707031 -4.332031 26.34375 -4.0625 C 25.988281 -3.800781 25.5625 -3.535156 25.0625 -3.265625 C 24.570312 -3.003906 24.019531 -2.769531 23.40625 -2.5625 C 22.800781 -2.363281 22.160156 -2.222656 21.484375 -2.140625 C 21.566406 -2.367188 21.632812 -2.578125 21.6875 -2.765625 C 21.75 -2.953125 21.796875 -3.132812 21.828125 -3.3125 C 21.859375 -3.488281 21.867188 -3.664062 21.859375 -3.84375 C 21.859375 -4.019531 21.847656 -4.210938 21.828125 -4.421875 C 21.804688 -4.648438 21.75 -5.050781 21.65625 -5.625 C 21.5625 -6.207031 21.445312 -6.890625 21.3125 -7.671875 C 21.1875 -8.453125 21.046875 -9.300781 20.890625 -10.21875 C 20.742188 -11.132812 20.597656 -12.039062 20.453125 -12.9375 C 20.304688 -13.84375 20.164062 -14.703125 20.03125 -15.515625 C 19.90625 -16.328125 19.8125 -17.023438 19.75 -17.609375 C 19.351562 -16.703125 18.960938 -15.867188 18.578125 -15.109375 C 18.203125 -14.347656 17.828125 -13.613281 17.453125 -12.90625 C 17.085938 -12.207031 16.726562 -11.519531 16.375 -10.84375 C 16.03125 -10.175781 15.695312 -9.484375 15.375 -8.765625 C 15.0625 -8.046875 14.769531 -7.289062 14.5 -6.5 C 14.238281 -5.71875 14.007812 -4.863281 13.8125 -3.9375 L 11.765625 -1.015625 C 11.734375 -1.335938 11.625 -1.710938 11.4375 -2.140625 C 11.25 -2.566406 11.039062 -2.976562 10.8125 -3.375 C 10.550781 -3.851562 10.257812 -4.328125 9.9375 -4.796875 C 9.570312 -5.328125 9.070312 -6.050781 8.4375 -6.96875 C 7.882812 -7.738281 7.160156 -8.765625 6.265625 -10.046875 C 5.378906 -11.335938 4.273438 -12.941406 2.953125 -14.859375 C 3.015625 -13.765625 3.082031 -12.644531 3.15625 -11.5 C 3.226562 -10.351562 3.273438 -9.21875 3.296875 -8.09375 C 3.328125 -6.976562 3.3125 -5.878906 3.25 -4.796875 C 3.195312 -3.722656 3.085938 -2.691406 2.921875 -1.703125 C 3.085938 -1.671875 3.265625 -1.648438 3.453125 -1.640625 C 3.640625 -1.640625 3.828125 -1.648438 4.015625 -1.671875 C 4.210938 -1.691406 4.398438 -1.71875 4.578125 -1.75 C 4.765625 -1.789062 4.929688 -1.832031 5.078125 -1.875 C 5.234375 -1.925781 5.390625 -1.96875 5.546875 -2 C 5.191406 -1.675781 4.863281 -1.390625 4.5625 -1.140625 C 4.269531 -0.898438 3.960938 -0.6875 3.640625 -0.5 C 3.328125 -0.3125 2.96875 -0.160156 2.5625 -0.046875 C 2.164062 0.0664062 1.691406 0.15625 1.140625 0.21875 C 1.347656 -0.0625 1.507812 -0.492188 1.625 -1.078125 C 1.75 -1.660156 1.832031 -2.347656 1.875 -3.140625 C 1.914062 -3.941406 1.925781 -4.820312 1.90625 -5.78125 C 1.894531 -6.75 1.863281 -7.734375 1.8125 -8.734375 C 1.757812 -9.742188 1.695312 -10.75 1.625 -11.75 C 1.550781 -12.75 1.484375 -13.703125 1.421875 -14.609375 C 1.367188 -15.515625 1.320312 -16.34375 1.28125 -17.09375 C 1.238281 -17.84375 1.222656 -18.46875 1.234375 -18.96875 L 2.953125 -21.375 C 2.898438 -21.21875 2.882812 -21.046875 2.90625 -20.859375 C 2.925781 -20.679688 2.960938 -20.515625 3.015625 -20.359375 C 3.078125 -20.179688 3.15625 -19.992188 3.25 -19.796875 C 3.300781 -19.679688 3.445312 -19.429688 3.6875 -19.046875 C 3.9375 -18.671875 4.242188 -18.207031 4.609375 -17.65625 C 4.972656 -17.113281 5.390625 -16.5 5.859375 -15.8125 C 6.328125 -15.125 6.816406 -14.398438 7.328125 -13.640625 C 7.835938 -12.890625 8.347656 -12.128906 8.859375 -11.359375 C 9.378906 -10.585938 9.878906 -9.847656 10.359375 -9.140625 C 10.835938 -8.441406 11.273438 -7.785156 11.671875 -7.171875 C 12.078125 -6.566406 12.410156 -6.054688 12.671875 -5.640625 C 13.304688 -6.910156 13.945312 -8.203125 14.59375 -9.515625 C 15.25 -10.835938 15.867188 -12.144531 16.453125 -13.4375 C 17.046875 -14.726562 17.582031 -16.007812 18.0625 -17.28125 C 18.550781 -18.550781 18.960938 -19.789062 19.296875 -21 L 21.875 -23.5625 C 22.007812 -21.875 22.179688 -20.265625 22.390625 -18.734375 C 22.597656 -17.210938 22.8125 -15.722656 23.03125 -14.265625 C 23.25 -12.816406 23.460938 -11.398438 23.671875 -10.015625 C 23.890625 -8.628906 24.082031 -7.234375 24.25 -5.828125 C 24.289062 -5.421875 24.300781 -5.082031 24.28125 -4.8125 C 24.269531 -4.550781 24.210938 -4.363281 24.109375 -4.25 C 24.523438 -4.238281 24.953125 -4.257812 25.390625 -4.3125 C 25.753906 -4.351562 26.09375 -4.410156 26.40625 -4.484375 C 26.71875 -4.566406 26.976562 -4.664062 27.1875 -4.78125 Z M 27.1875 -4.78125 "/></g></g></g><g fill="#000000" fill-opacity="1"><g transform="translate(192.929601, 83.363321)"><g><path d="M 5.625 -0.1875 C 5.09375 -0.0195312 4.59375 0.0976562 4.125 0.171875 C 3.664062 0.253906 3.234375 0.304688 2.828125 0.328125 C 2.421875 0.347656 2.066406 0.347656 1.765625 0.328125 C 1.460938 0.304688 1.203125 0.269531 0.984375 0.21875 L -1 -0.234375 L 0.625 -0.71875 C 0.820312 -0.875 1.015625 -1.03125 1.203125 -1.1875 C 1.390625 -1.351562 1.546875 -1.515625 1.671875 -1.671875 C 1.835938 -1.816406 1.984375 -1.972656 2.109375 -2.140625 C 2.515625 -2.648438 3.132812 -3.46875 3.96875 -4.59375 C 4.300781 -5.070312 4.703125 -5.644531 5.171875 -6.3125 C 5.648438 -6.976562 6.203125 -7.753906 6.828125 -8.640625 C 7.453125 -9.523438 8.144531 -10.535156 8.90625 -11.671875 C 9.675781 -12.804688 10.539062 -14.078125 11.5 -15.484375 L 14.296875 -17.078125 L 15.5 1.796875 C 15.863281 1.960938 16.210938 2.097656 16.546875 2.203125 C 16.878906 2.304688 17.195312 2.394531 17.5 2.46875 C 17.664062 2.5 17.8125 2.53125 17.9375 2.5625 C 18.070312 2.59375 18.1875 2.613281 18.28125 2.625 C 18.394531 2.644531 18.492188 2.65625 18.578125 2.65625 C 18.023438 2.789062 17.535156 2.90625 17.109375 3 C 16.691406 3.09375 16.316406 3.164062 15.984375 3.21875 C 15.660156 3.28125 15.363281 3.3125 15.09375 3.3125 C 14.820312 3.320312 14.5625 3.296875 14.3125 3.234375 L 12.171875 2.75 L 12.96875 2.484375 L 12.453125 -5.0625 C 12.171875 -5.050781 11.851562 -5.050781 11.5 -5.0625 C 11.144531 -5.070312 10.726562 -5.101562 10.25 -5.15625 C 9.78125 -5.207031 9.226562 -5.28125 8.59375 -5.375 C 7.96875 -5.46875 7.25 -5.585938 6.4375 -5.734375 C 5.882812 -5.023438 5.378906 -4.398438 4.921875 -3.859375 C 4.472656 -3.328125 4.078125 -2.863281 3.734375 -2.46875 C 3.390625 -2.070312 3.082031 -1.738281 2.8125 -1.46875 C 2.550781 -1.195312 2.332031 -0.984375 2.15625 -0.828125 C 2.300781 -0.765625 2.46875 -0.703125 2.65625 -0.640625 C 2.84375 -0.585938 3.023438 -0.539062 3.203125 -0.5 C 3.492188 -0.4375 3.78125 -0.382812 4.0625 -0.34375 C 4.34375 -0.300781 4.609375 -0.269531 4.859375 -0.25 C 5.117188 -0.21875 5.375 -0.195312 5.625 -0.1875 Z M 9.078125 -6.796875 C 10.273438 -6.523438 11.367188 -6.304688 12.359375 -6.140625 L 11.84375 -13.359375 C 10.988281 -12.078125 10.203125 -10.929688 9.484375 -9.921875 C 8.773438 -8.921875 8.113281 -8 7.5 -7.15625 Z M 9.078125 -6.796875 "/></g></g></g><g fill="#000000" fill-opacity="1"><g transform="translate(209.847055, 87.17439)"><g><path d="M 24.25 -8.6875 C 24.132812 -8.695312 23.960938 -8.695312 23.734375 -8.6875 C 23.515625 -8.675781 23.222656 -8.660156 22.859375 -8.640625 C 22.503906 -8.628906 22.03125 -8.613281 21.4375 -8.59375 C 21.6875 -8.695312 21.820312 -8.789062 21.84375 -8.875 C 21.863281 -8.96875 21.851562 -9.039062 21.8125 -9.09375 C 21.738281 -9.164062 21.628906 -9.226562 21.484375 -9.28125 C 21.398438 -9.300781 21.21875 -9.375 20.9375 -9.5 C 20.65625 -9.625 20.3125 -9.78125 19.90625 -9.96875 C 19.507812 -10.15625 19.050781 -10.378906 18.53125 -10.640625 C 18.019531 -10.898438 17.476562 -11.175781 16.90625 -11.46875 C 16.164062 -10.144531 15.5 -8.957031 14.90625 -7.90625 C 14.320312 -6.851562 13.800781 -5.921875 13.34375 -5.109375 C 12.882812 -4.304688 12.488281 -3.601562 12.15625 -3 C 11.832031 -2.40625 11.550781 -1.898438 11.3125 -1.484375 C 10.757812 -0.492188 10.378906 0.191406 10.171875 0.578125 C 10.003906 0.859375 9.816406 1.128906 9.609375 1.390625 C 9.398438 1.597656 9.15625 1.8125 8.875 2.03125 C 8.601562 2.25 8.28125 2.410156 7.90625 2.515625 C 8.050781 2.617188 8.191406 2.707031 8.328125 2.78125 C 8.460938 2.851562 8.601562 2.925781 8.75 3 C 9.125 3.195312 9.46875 3.359375 9.78125 3.484375 C 10.09375 3.617188 10.367188 3.722656 10.609375 3.796875 C 10.847656 3.867188 11.039062 3.921875 11.1875 3.953125 C 11.34375 3.984375 11.445312 3.992188 11.5 3.984375 C 10.90625 4.046875 10.414062 4.109375 10.03125 4.171875 C 9.644531 4.234375 9.300781 4.269531 9 4.28125 C 8.707031 4.300781 8.4375 4.285156 8.1875 4.234375 C 7.9375 4.179688 7.664062 4.078125 7.375 3.921875 C 6.988281 3.710938 6.664062 3.519531 6.40625 3.34375 C 6.15625 3.175781 5.894531 3.019531 5.625 2.875 C 5.488281 2.800781 5.347656 2.734375 5.203125 2.671875 C 5.054688 2.609375 4.882812 2.550781 4.6875 2.5 C 5.007812 2.414062 5.328125 2.304688 5.640625 2.171875 C 5.953125 2.046875 6.257812 1.851562 6.5625 1.59375 C 6.863281 1.34375 7.171875 1.003906 7.484375 0.578125 C 7.804688 0.160156 8.140625 -0.367188 8.484375 -1.015625 L 14.625 -12.5625 C 13.914062 -12.9375 13.21875 -13.289062 12.53125 -13.625 C 11.851562 -13.957031 11.242188 -14.257812 10.703125 -14.53125 C 10.171875 -14.8125 9.71875 -15.039062 9.34375 -15.21875 C 8.96875 -15.394531 8.726562 -15.507812 8.625 -15.5625 C 8.382812 -15.65625 8.226562 -15.742188 8.15625 -15.828125 C 8.082031 -15.921875 8.070312 -16.007812 8.125 -16.09375 C 8.175781 -16.175781 8.285156 -16.25 8.453125 -16.3125 C 8.628906 -16.375 8.847656 -16.425781 9.109375 -16.46875 L 11.40625 -16.765625 C 11.195312 -16.679688 11.09375 -16.59375 11.09375 -16.5 C 11.101562 -16.414062 11.148438 -16.320312 11.234375 -16.21875 C 11.316406 -16.125 11.445312 -16.023438 11.625 -15.921875 C 11.75 -15.847656 12.007812 -15.710938 12.40625 -15.515625 C 12.8125 -15.316406 13.300781 -15.070312 13.875 -14.78125 C 14.457031 -14.488281 15.09375 -14.164062 15.78125 -13.8125 C 16.476562 -13.457031 17.191406 -13.097656 17.921875 -12.734375 C 18.648438 -12.378906 19.363281 -12.023438 20.0625 -11.671875 C 20.757812 -11.316406 21.394531 -10.992188 21.96875 -10.703125 C 22.539062 -10.421875 23.023438 -10.175781 23.421875 -9.96875 C 23.828125 -9.769531 24.09375 -9.644531 24.21875 -9.59375 C 24.476562 -9.46875 24.648438 -9.351562 24.734375 -9.25 C 24.828125 -9.144531 24.851562 -9.046875 24.8125 -8.953125 C 24.78125 -8.867188 24.710938 -8.804688 24.609375 -8.765625 C 24.503906 -8.722656 24.382812 -8.695312 24.25 -8.6875 Z M 11.5 3.984375 L 11.515625 3.96875 C 11.515625 3.96875 11.519531 3.972656 11.53125 3.984375 Z M 11.5 3.984375 "/></g></g></g><g fill="#000000" fill-opacity="1"><g transform="translate(224.710175, 95.554682)"><g><path d="M 7.46875 3.90625 C 6.875 3.84375 6.378906 3.796875 5.984375 3.765625 C 5.597656 3.742188 5.253906 3.710938 4.953125 3.671875 C 4.660156 3.628906 4.398438 3.554688 4.171875 3.453125 C 3.941406 3.347656 3.703125 3.191406 3.453125 2.984375 C 3.109375 2.710938 2.828125 2.460938 2.609375 2.234375 C 2.390625 2.003906 2.164062 1.796875 1.9375 1.609375 C 1.8125 1.503906 1.679688 1.40625 1.546875 1.3125 C 1.421875 1.21875 1.273438 1.128906 1.109375 1.046875 C 1.429688 1.035156 1.753906 1 2.078125 0.9375 C 2.410156 0.882812 2.75 0.757812 3.09375 0.5625 C 3.445312 0.363281 3.820312 0.09375 4.21875 -0.25 C 4.625 -0.59375 5.0625 -1.050781 5.53125 -1.625 L 14.328125 -12.21875 C 14.097656 -12.382812 13.8125 -12.578125 13.46875 -12.796875 C 13.132812 -13.023438 12.75 -13.273438 12.3125 -13.546875 C 12.9375 -13.535156 13.46875 -13.484375 13.90625 -13.390625 C 14.34375 -13.304688 14.707031 -13.207031 15 -13.09375 C 15.3125 -12.96875 15.570312 -12.835938 15.78125 -12.703125 C 16.019531 -12.484375 16.296875 -12.257812 16.609375 -12.03125 C 16.921875 -11.800781 17.222656 -11.582031 17.515625 -11.375 C 17.816406 -11.164062 18.097656 -10.984375 18.359375 -10.828125 C 18.617188 -10.671875 18.828125 -10.570312 18.984375 -10.53125 C 18.472656 -10.582031 18.019531 -10.640625 17.625 -10.703125 C 17.238281 -10.773438 16.890625 -10.859375 16.578125 -10.953125 C 15.484375 -9.722656 14.507812 -8.613281 13.65625 -7.625 C 12.800781 -6.644531 12.039062 -5.773438 11.375 -5.015625 C 10.71875 -4.253906 10.148438 -3.597656 9.671875 -3.046875 C 9.191406 -2.492188 8.78125 -2.019531 8.4375 -1.625 C 7.65625 -0.707031 7.128906 -0.0703125 6.859375 0.28125 C 6.628906 0.53125 6.382812 0.753906 6.125 0.953125 C 5.875 1.128906 5.585938 1.296875 5.265625 1.453125 C 4.953125 1.609375 4.609375 1.703125 4.234375 1.734375 C 4.347656 1.847656 4.46875 1.957031 4.59375 2.0625 C 4.726562 2.175781 4.851562 2.28125 4.96875 2.375 C 5.320312 2.664062 5.644531 2.910156 5.9375 3.109375 C 6.238281 3.304688 6.507812 3.46875 6.75 3.59375 C 7.007812 3.726562 7.25 3.832031 7.46875 3.90625 Z M 7.46875 3.90625 "/></g></g></g><g fill="#000000" fill-opacity="1"><g transform="translate(231.769727, 100.758221)"><g><path d="M 25.859375 2.546875 C 25.597656 2.546875 25.316406 2.515625 25.015625 2.453125 C 24.753906 2.398438 24.457031 2.316406 24.125 2.203125 C 23.800781 2.097656 23.453125 1.9375 23.078125 1.71875 C 23.285156 1.707031 23.429688 1.601562 23.515625 1.40625 C 23.597656 1.21875 23.585938 0.9375 23.484375 0.5625 C 23.390625 0.1875 23.191406 -0.265625 22.890625 -0.796875 C 22.597656 -1.335938 22.179688 -1.953125 21.640625 -2.640625 C 21.316406 -3.046875 20.9375 -3.441406 20.5 -3.828125 C 20.0625 -4.222656 19.5625 -4.566406 19 -4.859375 C 18.445312 -5.160156 17.835938 -5.390625 17.171875 -5.546875 C 16.515625 -5.703125 15.8125 -5.742188 15.0625 -5.671875 C 14.320312 -5.597656 13.53125 -5.390625 12.6875 -5.046875 C 11.851562 -4.703125 10.992188 -4.179688 10.109375 -3.484375 C 9.203125 -2.765625 8.5 -2.03125 8 -1.28125 C 7.5 -0.53125 7.144531 0.210938 6.9375 0.953125 C 6.726562 1.703125 6.640625 2.4375 6.671875 3.15625 C 6.710938 3.875 6.828125 4.554688 7.015625 5.203125 C 7.203125 5.847656 7.441406 6.4375 7.734375 6.96875 C 8.035156 7.5 8.332031 7.953125 8.625 8.328125 C 8.976562 8.753906 9.367188 9.179688 9.796875 9.609375 C 10.171875 9.984375 10.597656 10.375 11.078125 10.78125 C 11.554688 11.1875 12.070312 11.5625 12.625 11.90625 C 11.519531 11.644531 10.585938 11.332031 9.828125 10.96875 C 9.066406 10.601562 8.441406 10.253906 7.953125 9.921875 C 7.367188 9.523438 6.890625 9.117188 6.515625 8.703125 C 5.691406 7.648438 5.066406 6.53125 4.640625 5.34375 C 4.210938 4.164062 4.015625 2.988281 4.046875 1.8125 C 4.085938 0.644531 4.375 -0.476562 4.90625 -1.5625 C 5.445312 -2.644531 6.269531 -3.617188 7.375 -4.484375 C 8.050781 -5.015625 8.726562 -5.441406 9.40625 -5.765625 C 10.09375 -6.097656 10.757812 -6.351562 11.40625 -6.53125 C 12.0625 -6.707031 12.6875 -6.8125 13.28125 -6.84375 C 13.882812 -6.882812 14.441406 -6.882812 14.953125 -6.84375 C 15.472656 -6.8125 15.929688 -6.742188 16.328125 -6.640625 C 16.734375 -6.535156 17.070312 -6.425781 17.34375 -6.3125 C 17.59375 -6.21875 17.898438 -6.078125 18.265625 -5.890625 C 18.628906 -5.703125 19.015625 -5.488281 19.421875 -5.25 C 19.835938 -5.007812 20.257812 -4.75 20.6875 -4.46875 C 21.125 -4.195312 21.554688 -3.898438 21.984375 -3.578125 C 22.410156 -3.265625 22.804688 -2.941406 23.171875 -2.609375 C 23.535156 -2.285156 23.851562 -1.953125 24.125 -1.609375 C 24.726562 -0.835938 25.179688 -0.191406 25.484375 0.328125 C 25.785156 0.859375 25.976562 1.285156 26.0625 1.609375 C 26.15625 1.941406 26.171875 2.179688 26.109375 2.328125 C 26.046875 2.472656 25.960938 2.546875 25.859375 2.546875 Z M 25.859375 2.546875 "/></g></g></g><g clip-path="url(#3acdbd529d)"><g clip-path="url(#e858ec9b63)"><path stroke-linecap="butt" transform="matrix(0.75, 0, 0, 0.75, 110.844254, 108.346603)" fill="none" stroke-linejoin="miter" d="M 102.20246 0.00140395 C 45.759748 0.00140395 -0.000672028 45.756615 -0.000672028 102.204536 C -0.000672028 158.647248 45.759748 204.407667 102.20246 204.407667 C 158.65038 204.407667 204.405591 158.647248 204.405591 102.204536 C 204.405591 45.756615 158.65038 0.00140395 102.20246 0.00140395 Z M 102.20246 0.00140395 " stroke="#ffffff" stroke-width="8" stroke-opacity="1" stroke-miterlimit="4"/></g></g><path stroke-linecap="butt" transform="matrix(0.75, 0, 0, 0.75, 150.009283, 146.563937)" fill="none" stroke-linejoin="miter" d="M 152.456383 138.07101 C 151.388675 138.961635 149.899091 139.961635 147.992841 141.07101 C 146.081383 142.180385 143.847008 143.222052 141.294924 144.201219 C 138.742841 145.180385 135.93034 145.998094 132.86784 146.664761 C 129.800132 147.331427 126.602215 147.664761 123.27409 147.664761 C 123.852215 146.597052 124.326173 145.633511 124.706381 144.768927 C 125.081381 143.899135 125.393881 143.044969 125.638673 142.201219 C 125.883465 141.357469 126.050131 140.513719 126.138673 139.669968 C 126.227215 138.826218 126.268881 137.893927 126.268881 136.873093 C 126.268881 135.716843 126.206381 133.706426 126.070965 130.841843 C 125.940756 127.977259 125.784506 124.612676 125.607423 120.748092 C 125.425131 116.883509 125.227215 112.685592 125.003256 108.154341 C 124.784506 103.628299 124.570965 99.138716 124.373048 94.696007 C 124.175131 90.258507 123.99284 86.034548 123.841798 82.039756 C 123.685548 78.039756 123.58659 74.623089 123.539715 71.779339 C 121.185548 75.909548 118.862631 79.71684 116.576172 83.206423 C 114.289714 86.690798 112.044922 90.034549 109.847005 93.232465 C 107.649089 96.430382 105.51888 99.560591 103.451172 102.628299 C 101.388671 105.6908 99.388671 108.867883 97.45638 112.154342 C 95.524088 115.4408 93.690754 118.914759 91.956379 122.581426 C 90.227212 126.242884 88.607421 130.274135 87.097004 134.675176 L 75.503253 147.664761 C 75.591795 146.112677 75.300128 144.232469 74.63867 142.034552 C 73.972003 139.836635 73.190753 137.716843 72.305336 135.675177 C 71.284503 133.274135 70.128253 130.810593 68.841794 128.279343 C 67.331378 125.524134 65.310544 121.748092 62.779294 116.951217 C 60.555335 112.90955 57.649085 107.513716 54.050127 100.758508 C 50.451168 94.008507 45.966793 85.612673 40.591792 75.576214 C 40.279292 80.992881 39.977209 86.482465 39.690751 92.034549 C 39.404292 97.586632 39.013667 103.081424 38.524084 108.524133 C 38.034501 113.961633 37.357417 119.294967 36.492834 124.513717 C 35.62825 129.732468 34.482417 134.675176 33.060542 139.336635 C 33.81575 139.60226 34.6595 139.805385 35.591792 139.935593 C 36.524084 140.07101 37.456376 140.138719 38.393876 140.138719 C 39.367834 140.138719 40.300126 140.091843 41.190751 140.003302 C 42.076168 139.91476 42.878251 139.826218 43.586584 139.737677 C 44.388668 139.60226 45.164709 139.472052 45.919918 139.336635 C 44.055334 140.75851 42.331376 141.982469 40.758459 143.003302 C 39.180334 144.024135 37.560542 144.888719 35.893875 145.602261 C 34.227209 146.310594 32.393875 146.831427 30.399083 147.164761 C 28.399083 147.498094 26.018875 147.664761 23.268875 147.664761 C 24.513666 146.466844 25.586583 144.47726 26.498042 141.701219 C 27.4095 138.925177 28.185542 135.617885 28.831375 131.774135 C 29.477208 127.935593 30.018875 123.680384 30.461583 119.018925 C 30.9095 114.352258 31.294917 109.5658 31.62825 104.65955 C 31.961584 99.748091 32.227209 94.831424 32.430334 89.899132 C 32.62825 84.972048 32.841792 80.294965 33.060542 75.878298 C 33.2845 71.456422 33.50325 67.414755 33.727209 63.748088 C 33.951167 60.08663 34.237625 57.076213 34.591792 54.722046 L 44.253251 44.060587 C 43.899084 44.774129 43.722001 45.571004 43.722001 46.461629 C 43.722001 47.347046 43.810543 48.190796 43.987626 48.992879 C 44.164709 49.925171 44.430334 50.878296 44.789709 51.857463 C 45.008459 52.435588 45.607418 53.701213 46.586585 55.654338 C 47.565751 57.607463 48.784501 60.018922 50.253251 62.883505 C 51.716793 65.748089 53.393877 68.99288 55.279293 72.612672 C 57.169919 76.232464 59.13346 80.008506 61.180335 83.93559 C 63.222002 87.867882 65.284502 91.84184 67.373044 95.862674 C 69.461586 99.883508 71.461586 103.737674 73.367836 107.425175 C 75.279295 111.112675 77.034503 114.539758 78.633462 117.716842 C 80.23242 120.893926 81.565753 123.591842 82.633462 125.810593 C 86.404295 119.951217 90.237629 114.018925 94.123046 108.024133 C 98.008463 102.029341 101.742838 96.050174 105.315755 90.102257 C 108.89388 84.149131 112.222006 78.232464 115.310547 72.347047 C 118.399089 66.46163 121.050131 60.675172 123.27409 54.987671 L 137.195965 44.060587 C 136.93034 52.279338 136.862632 60.154338 136.998049 67.68038 C 137.133465 75.211631 137.341799 82.550173 137.633466 89.701215 C 137.919924 96.852257 138.195966 103.867883 138.461591 110.7533 C 138.732424 117.638717 138.862632 124.524134 138.862632 131.409551 C 138.862632 133.409551 138.742841 135.03976 138.498049 136.305385 C 138.253257 137.57101 137.820966 138.451218 137.195965 138.935593 C 139.242841 139.206427 141.331382 139.336635 143.461591 139.336635 C 145.237633 139.336635 146.914716 139.237677 148.492841 139.03976 C 150.065758 138.836635 151.388675 138.513718 152.456383 138.07101 Z M 152.456383 138.07101 " stroke="#ffffff" stroke-width="15.521188" stroke-opacity="1" stroke-miterlimit="4"/><g fill="#000000" fill-opacity="1"><g transform="translate(163.462407, 256.06393)"><g><path d="M 100.890625 -5.953125 C 100.085938 -5.285156 98.96875 -4.535156 97.53125 -3.703125 C 96.101562 -2.867188 94.429688 -2.082031 92.515625 -1.34375 C 90.609375 -0.613281 88.503906 0 86.203125 0.5 C 83.898438 1 81.5 1.25 79 1.25 C 79.4375 0.445312 79.796875 -0.273438 80.078125 -0.921875 C 80.359375 -1.578125 80.59375 -2.21875 80.78125 -2.84375 C 80.96875 -3.476562 81.09375 -4.113281 81.15625 -4.75 C 81.21875 -5.382812 81.25 -6.082031 81.25 -6.84375 C 81.25 -7.707031 81.195312 -9.210938 81.09375 -11.359375 C 81 -13.515625 80.882812 -16.039062 80.75 -18.9375 C 80.625 -21.832031 80.476562 -24.976562 80.3125 -28.375 C 80.144531 -31.78125 79.984375 -35.144531 79.828125 -38.46875 C 79.679688 -41.800781 79.546875 -44.96875 79.421875 -47.96875 C 79.304688 -50.96875 79.234375 -53.535156 79.203125 -55.671875 C 77.441406 -52.566406 75.703125 -49.707031 73.984375 -47.09375 C 72.265625 -44.476562 70.582031 -41.972656 68.9375 -39.578125 C 67.289062 -37.179688 65.691406 -34.832031 64.140625 -32.53125 C 62.585938 -30.226562 61.085938 -27.84375 59.640625 -25.375 C 58.191406 -22.914062 56.816406 -20.3125 55.515625 -17.5625 C 54.222656 -14.8125 53.007812 -11.789062 51.875 -8.5 L 43.171875 1.25 C 43.242188 0.0820312 43.03125 -1.320312 42.53125 -2.96875 C 42.03125 -4.625 41.445312 -6.21875 40.78125 -7.75 C 40.007812 -9.539062 39.140625 -11.390625 38.171875 -13.296875 C 37.046875 -15.359375 35.53125 -18.1875 33.625 -21.78125 C 31.96875 -24.8125 29.785156 -28.859375 27.078125 -33.921875 C 24.378906 -38.992188 21.015625 -45.296875 16.984375 -52.828125 C 16.753906 -48.753906 16.53125 -44.632812 16.3125 -40.46875 C 16.09375 -36.3125 15.800781 -32.191406 15.4375 -28.109375 C 15.070312 -24.023438 14.5625 -20.023438 13.90625 -16.109375 C 13.257812 -12.203125 12.40625 -8.5 11.34375 -5 C 11.90625 -4.800781 12.535156 -4.648438 13.234375 -4.546875 C 13.941406 -4.441406 14.644531 -4.390625 15.34375 -4.390625 C 16.070312 -4.390625 16.769531 -4.421875 17.4375 -4.484375 C 18.101562 -4.554688 18.703125 -4.628906 19.234375 -4.703125 C 19.835938 -4.796875 20.421875 -4.894531 20.984375 -5 C 19.585938 -3.925781 18.296875 -3.003906 17.109375 -2.234375 C 15.929688 -1.472656 14.71875 -0.828125 13.46875 -0.296875 C 12.21875 0.234375 10.84375 0.625 9.34375 0.875 C 7.84375 1.125 6.0625 1.25 4 1.25 C 4.925781 0.351562 5.734375 -1.132812 6.421875 -3.21875 C 7.109375 -5.300781 7.691406 -7.78125 8.171875 -10.65625 C 8.648438 -13.539062 9.054688 -16.734375 9.390625 -20.234375 C 9.722656 -23.734375 10.015625 -27.320312 10.265625 -31 C 10.515625 -34.6875 10.710938 -38.378906 10.859375 -42.078125 C 11.015625 -45.773438 11.175781 -49.28125 11.34375 -52.59375 C 11.507812 -55.90625 11.675781 -58.9375 11.84375 -61.6875 C 12.007812 -64.4375 12.226562 -66.695312 12.5 -68.46875 L 19.734375 -76.453125 C 19.472656 -75.921875 19.34375 -75.320312 19.34375 -74.65625 C 19.34375 -73.988281 19.410156 -73.359375 19.546875 -72.765625 C 19.671875 -72.054688 19.867188 -71.335938 20.140625 -70.609375 C 20.304688 -70.179688 20.753906 -69.234375 21.484375 -67.765625 C 22.222656 -66.296875 23.140625 -64.488281 24.234375 -62.34375 C 25.335938 -60.195312 26.597656 -57.765625 28.015625 -55.046875 C 29.429688 -52.328125 30.90625 -49.492188 32.4375 -46.546875 C 33.96875 -43.597656 35.515625 -40.613281 37.078125 -37.59375 C 38.640625 -34.582031 40.132812 -31.691406 41.5625 -28.921875 C 43 -26.160156 44.316406 -23.585938 45.515625 -21.203125 C 46.722656 -18.828125 47.722656 -16.804688 48.515625 -15.140625 C 51.347656 -19.535156 54.222656 -23.984375 57.140625 -28.484375 C 60.054688 -32.984375 62.851562 -37.460938 65.53125 -41.921875 C 68.21875 -46.390625 70.71875 -50.828125 73.03125 -55.234375 C 75.351562 -59.648438 77.34375 -63.992188 79 -68.265625 L 89.453125 -76.453125 C 89.253906 -70.296875 89.203125 -64.390625 89.296875 -58.734375 C 89.398438 -53.085938 89.554688 -47.582031 89.765625 -42.21875 C 89.984375 -36.863281 90.191406 -31.601562 90.390625 -26.4375 C 90.597656 -21.269531 90.703125 -16.101562 90.703125 -10.9375 C 90.703125 -9.4375 90.609375 -8.210938 90.421875 -7.265625 C 90.242188 -6.316406 89.921875 -5.660156 89.453125 -5.296875 C 90.984375 -5.097656 92.546875 -5 94.140625 -5 C 95.472656 -5 96.726562 -5.070312 97.90625 -5.21875 C 99.09375 -5.375 100.085938 -5.617188 100.890625 -5.953125 Z M 100.890625 -5.953125 "/></g></g></g><g fill="#000000" fill-opacity="1"><g transform="translate(140.512173, 220.517035)"><g><path d="M 28.890625 -74.40625 C 27.316406 -73.375 25.90625 -72.515625 24.65625 -71.828125 C 23.40625 -71.148438 22.21875 -70.578125 21.09375 -70.109375 C 21.019531 -67.242188 20.945312 -64.585938 20.875 -62.140625 C 20.8125 -59.691406 20.753906 -57.382812 20.703125 -55.21875 C 20.660156 -53.050781 20.617188 -51 20.578125 -49.0625 C 20.546875 -47.132812 20.515625 -45.269531 20.484375 -43.46875 C 22.253906 -43.84375 24.085938 -44.03125 25.984375 -44.03125 C 27.816406 -44.03125 29.941406 -44.003906 32.359375 -43.953125 C 34.773438 -43.898438 37.28125 -43.832031 39.875 -43.75 C 42.476562 -43.664062 45.09375 -43.597656 47.71875 -43.546875 C 50.351562 -43.492188 52.800781 -43.46875 55.0625 -43.46875 L 57.421875 -43.46875 L 57.421875 -68.359375 C 56.390625 -68.265625 55.128906 -68.140625 53.640625 -67.984375 C 52.160156 -67.835938 50.488281 -67.628906 48.625 -67.359375 C 50.425781 -68.828125 52.039062 -69.9375 53.46875 -70.6875 C 54.90625 -71.4375 56.140625 -71.992188 57.171875 -72.359375 C 58.367188 -72.753906 59.429688 -72.988281 60.359375 -73.0625 C 61.566406 -73.0625 62.867188 -73.09375 64.265625 -73.15625 C 65.660156 -73.226562 67.023438 -73.320312 68.359375 -73.4375 C 69.691406 -73.550781 70.898438 -73.691406 71.984375 -73.859375 C 73.066406 -74.023438 73.875 -74.207031 74.40625 -74.40625 C 72.84375 -73.375 71.4375 -72.515625 70.1875 -71.828125 C 68.9375 -71.148438 67.742188 -70.578125 66.609375 -70.109375 C 66.441406 -64.046875 66.304688 -58.628906 66.203125 -53.859375 C 66.109375 -49.097656 66.019531 -44.878906 65.9375 -41.203125 C 65.851562 -37.523438 65.785156 -34.332031 65.734375 -31.625 C 65.679688 -28.925781 65.640625 -26.628906 65.609375 -24.734375 C 65.515625 -20.273438 65.484375 -17.242188 65.515625 -15.640625 C 65.484375 -14.410156 65.316406 -13.195312 65.015625 -12 C 64.742188 -10.957031 64.34375 -9.84375 63.8125 -8.65625 C 63.28125 -7.476562 62.515625 -6.410156 61.515625 -5.453125 C 62.117188 -5.378906 62.703125 -5.332031 63.265625 -5.3125 C 63.828125 -5.300781 64.394531 -5.296875 64.96875 -5.296875 C 66.53125 -5.296875 67.9375 -5.367188 69.1875 -5.515625 C 70.4375 -5.671875 71.519531 -5.832031 72.4375 -6 C 73.351562 -6.164062 74.078125 -6.332031 74.609375 -6.5 C 75.140625 -6.664062 75.472656 -6.78125 75.609375 -6.84375 C 73.835938 -5.644531 72.367188 -4.613281 71.203125 -3.75 C 70.046875 -2.882812 69 -2.175781 68.0625 -1.625 C 67.125 -1.070312 66.210938 -0.660156 65.328125 -0.390625 C 64.453125 -0.128906 63.414062 0 62.21875 0 C 60.613281 0 59.253906 -0.0664062 58.140625 -0.203125 C 57.023438 -0.335938 55.898438 -0.40625 54.765625 -0.40625 C 54.203125 -0.40625 53.628906 -0.378906 53.046875 -0.328125 C 52.460938 -0.273438 51.804688 -0.164062 51.078125 0 C 52.140625 -0.5 53.066406 -1.023438 53.859375 -1.578125 C 54.660156 -2.128906 55.320312 -2.894531 55.84375 -3.875 C 56.363281 -4.851562 56.753906 -6.148438 57.015625 -7.765625 C 57.285156 -9.378906 57.421875 -11.535156 57.421875 -14.234375 L 57.421875 -40.234375 C 56.453125 -40.023438 55.367188 -39.851562 54.171875 -39.71875 C 52.972656 -39.59375 51.585938 -39.53125 50.015625 -39.53125 C 47.859375 -39.53125 45.328125 -39.59375 42.421875 -39.71875 C 39.523438 -39.851562 36.363281 -39.921875 32.9375 -39.921875 C 30.90625 -39.921875 28.847656 -39.867188 26.765625 -39.765625 C 24.679688 -39.671875 22.554688 -39.507812 20.390625 -39.28125 C 20.253906 -34.382812 20.160156 -30.398438 20.109375 -27.328125 C 20.054688 -24.265625 20.015625 -21.867188 19.984375 -20.140625 C 19.953125 -18.109375 19.9375 -16.609375 19.9375 -15.640625 C 19.90625 -14.410156 19.738281 -13.195312 19.4375 -12 C 19.175781 -10.957031 18.773438 -9.84375 18.234375 -8.65625 C 17.703125 -7.476562 16.9375 -6.410156 15.9375 -5.453125 C 16.570312 -5.378906 17.171875 -5.332031 17.734375 -5.3125 C 18.304688 -5.300781 18.875 -5.296875 19.4375 -5.296875 C 21 -5.296875 22.40625 -5.367188 23.65625 -5.515625 C 24.90625 -5.671875 25.988281 -5.832031 26.90625 -6 C 27.820312 -6.164062 28.546875 -6.332031 29.078125 -6.5 C 29.617188 -6.664062 29.953125 -6.78125 30.078125 -6.84375 C 28.316406 -5.644531 26.851562 -4.613281 25.6875 -3.75 C 24.519531 -2.882812 23.46875 -2.175781 22.53125 -1.625 C 21.601562 -1.070312 20.695312 -0.660156 19.8125 -0.390625 C 18.925781 -0.128906 17.882812 0 16.6875 0 C 15.09375 0 13.726562 -0.0664062 12.59375 -0.203125 C 11.457031 -0.335938 10.320312 -0.40625 9.1875 -0.40625 C 8.625 -0.40625 8.050781 -0.378906 7.46875 -0.328125 C 6.882812 -0.273438 6.242188 -0.164062 5.546875 0 C 6.484375 -0.800781 7.332031 -1.675781 8.09375 -2.625 C 8.863281 -3.570312 9.519531 -4.726562 10.0625 -6.09375 C 10.613281 -7.457031 11.039062 -9.085938 11.34375 -10.984375 C 11.644531 -12.890625 11.796875 -15.191406 11.796875 -17.890625 L 11.796875 -37.78125 C 11.023438 -37.613281 10.273438 -37.429688 9.546875 -37.234375 C 8.816406 -37.035156 8.082031 -36.800781 7.34375 -36.53125 C 8.082031 -37.195312 8.816406 -37.8125 9.546875 -38.375 C 10.273438 -38.945312 11.023438 -39.5 11.796875 -40.03125 L 11.796875 -68.359375 C 10.765625 -68.265625 9.515625 -68.140625 8.046875 -67.984375 C 6.578125 -67.835938 4.910156 -67.628906 3.046875 -67.359375 C 4.847656 -68.828125 6.472656 -69.9375 7.921875 -70.6875 C 9.367188 -71.4375 10.609375 -71.992188 11.640625 -72.359375 C 12.835938 -72.753906 13.90625 -72.988281 14.84375 -73.0625 C 16.007812 -73.0625 17.300781 -73.09375 18.71875 -73.15625 C 20.132812 -73.226562 21.5 -73.320312 22.8125 -73.4375 C 24.125 -73.550781 25.328125 -73.691406 26.421875 -73.859375 C 27.523438 -74.023438 28.347656 -74.207031 28.890625 -74.40625 Z M 30.078125 -6.84375 L 30.078125 -6.890625 C 30.117188 -6.929688 30.15625 -6.953125 30.1875 -6.953125 Z M 75.609375 -6.84375 L 75.609375 -6.890625 L 75.65625 -6.890625 C 75.6875 -6.929688 75.722656 -6.953125 75.765625 -6.953125 Z M 75.609375 -6.84375 "/></g></g></g><g clip-path="url(#081f2c5926)"><g clip-path="url(#9f71f15c3f)"><path fill="#000000" d="M 72.292969 211.644531 L 85.472656 211.644531 L 85.472656 224.824219 L 72.292969 224.824219 Z M 72.292969 211.644531 " fill-opacity="1" fill-rule="nonzero"/></g></g><g clip-path="url(#354fcac56a)"><g clip-path="url(#e9fc2defff)"><path fill="#000000" d="M 289.527344 211.644531 L 302.707031 211.644531 L 302.707031 224.824219 L 289.527344 224.824219 Z M 289.527344 211.644531 " fill-opacity="1" fill-rule="nonzero"/></g></g></svg>